<?xml version="1.0" encoding="utf-8"?>
<!-- Generator: Adobe Illustrator 22.1.0, SVG Export Plug-In . SVG Version: 6.00 Build 0)  -->
<svg version="1.1" id="Layer_1" xmlns="http://www.w3.org/2000/svg" xmlns:xlink="http://www.w3.org/1999/xlink" x="0px" y="0px"
	 viewBox="0 0 480 570" style="enable-background:new 0 0 480 570;" xml:space="preserve">
<style type="text/css">
	.st0{fill:#B84936;stroke:#EFE3B8;stroke-width:20;stroke-linecap:round;stroke-linejoin:round;}
	.st1{fill:#EFE3B8;}
	.st2{fill:#353535;}
	.st3{fill:#353535;stroke:#EFE3B8;stroke-width:10;}
	.st4{fill:#B84936;stroke:#EFE3B8;stroke-width:10;}
	.st5{fill:#353535;stroke:#EFE3B8;stroke-width:7;}
	.st6{fill:#B84936;}
	.st7{fill:none;stroke:#EFE3B8;stroke-width:7;stroke-linecap:round;stroke-linejoin:round;}
	.st8{fill:#353535;stroke:#EFE3B8;stroke-width:6;}
</style>
<path class="st0" d="M20,10h440c5.5,0,10,4.5,10,10v530c0,5.5-4.5,10-10,10H20c-5.5,0-10-4.5-10-10V20C10,14.5,14.5,10,20,10z"/>
<path class="st1" d="M177,411.4h7v-11.4l-10.2,5.1L177,411.4z M177,435.1h-7v18.5l12.2-13.9L177,435.1z M181.3,430.2l1.7-6.8l-4.1-1
	l-2.8,3.2L181.3,430.2L181.3,430.2z M195.7,433.8h7v-5.4l-5.3-1.3L195.7,433.8z M195.7,491.7l3.4,6.1l3.6-2v-4.1H195.7z
	 M186.3,496.9h-7v11.8l10.4-5.7L186.3,496.9z M186.3,441.2h7v-5.4l-5.3-1.4L186.3,441.2z M177,438.8l1.7-6.8l-8.7-2.3v9H177z
	 M177,463.1h-7v4l3.5,2L177,463.1z M182.9,466.6l6.1,3.5l3.5-6l-6-3.5L182.9,466.6z M178.2,474.7l-3.5,6.1l6.1,3.5l3.5-6
	L178.2,474.7L178.2,474.7z M167.5,468.6h-7v4.1l3.5,2L167.5,468.6z M167.5,416.2l-3.2-6.2l-3.8,1.9v4.3L167.5,416.2L167.5,416.2z
	 M170,411.4v23.6h14v-23.6H170z M182.2,439.7l4.3-4.9l-10.5-9.3l-4.3,4.9L182.2,439.7z M179.6,437l14.4,3.6l3.4-13.6l-14.4-3.6
	L179.6,437z M188.7,433.8v57.9h14v-57.9H188.7z M192.3,485.6l-9.4,5.2l6.8,12.3l9.4-5.2L192.3,485.6z M193.3,496.9v-55.7h-14v55.7
	H193.3z M188,434.4l-9.3-2.4l-3.5,13.6l9.3,2.4L188,434.4z M170,438.8v24.3h14v-24.3H170z M173.5,469.1l6,3.5l7-12.1l-6-3.5
	L173.5,469.1z M176.9,463.1l-4.7,8.2l12.1,7l4.7-8.2L176.9,463.1z M181.7,468.6l-10.8-6.1l-6.9,12.2l10.8,6.1L181.7,468.6z
	 M174.5,468.6v-52.3h-14v52.3H174.5z M170.6,422.5l9.5-4.8l-6.3-12.5l-9.5,4.8L170.6,422.5z M201.5,413.9v-7h-7v7H201.5z
	 M209.7,413.9l6.9,1.1l1.3-8.1h-8.2V413.9L209.7,413.9z M207.7,426.8v7h6l0.9-5.9L207.7,426.8z M201.5,426.8h-7v7h7V426.8z
	 M201.9,430.3l3.8-5.9l-5.9-3.8l-3.7,6L201.9,430.3z M211.9,436.6h7v-3.8l-3.2-2.1L211.9,436.6z M211.9,463.1h-7v4l3.5,2
	L211.9,463.1z M217.9,466.6l6.1,3.5l3.5-6l-6-3.5L217.9,466.6z M213.2,474.7l-3.5,6.1l6.1,3.5l3.5-6.1L213.2,474.7L213.2,474.7z
	 M202.5,468.6h-7v4l3.5,2L202.5,468.6z M202.5,441.8h7v-3.8l-3.2-2.1L202.5,441.8z M196.9,438.2l-5.9-3.7l-3.7,5.9l5.9,3.7
	L196.9,438.2L196.9,438.2z M201.5,420.9h8.2v-14h-8.2V420.9z M202.8,412.9l-2,12.9l13.8,2.2l2-12.9L202.8,412.9z M207.7,419.8h-6.1
	v14h6.1V419.8z M208.5,426.8v-12.9h-14v12.9H208.5z M198.2,436.2l10,6.3l7.5-11.8l-10-6.3L198.2,436.2z M204.9,436.6v26.5h14v-26.5
	L204.9,436.6L204.9,436.6z M208.4,469.1l6,3.5l7-12.1l-6-3.5L208.4,469.1z M211.8,463.1l-4.7,8.2l12.1,7l4.7-8.2L211.8,463.1z
	 M216.7,468.6l-10.7-6.1l-7,12.1l10.7,6.1L216.7,468.6L216.7,468.6z M209.5,468.6v-26.8h-14v26.8H209.5z M206.3,435.9l-5.6-3.6
	l-7.5,11.8l5.6,3.6L206.3,435.9z M202.9,441.9l5-8l-11.9-7.4l-5,8L202.9,441.9z M229.6,418.7h7v-10.9l-9.9,4.6L229.6,418.7z
	 M229.6,429.5h-7v7h7V429.5z M235.4,429.5h7v-7h-7V429.5z M235.4,439v7h7v-7H235.4z M229.6,439v-7h-7v7H229.6z M229.6,465.4h-7v4.9
	l4.6,1.7L229.6,465.4z M236.3,467.9l6.1,3.5l4.1-7.2l-7.7-2.9L236.3,467.9L236.3,467.9z M231.6,476.2l-2.4,6.6l5.5,2l2.9-5.1
	L231.6,476.2z M220.2,472h-7v4.9l4.6,1.7L220.2,472z M220.2,423.1l-2.9-6.4l-4.1,1.9v4.5H220.2z M222.6,418.7v10.8h14v-10.8H222.6z
	 M229.6,436.5h5.9v-14h-5.9V436.5z M228.4,429.5v9.5h14v-9.5L228.4,429.5L228.4,429.5z M235.4,432h-5.9v14h5.9V432z M222.6,439v26.4
	h14V439L222.6,439L222.6,439z M227.1,472l6.7,2.5l4.9-13.1l-6.7-2.5L227.1,472z M230.2,464.4l-4.7,8.3l12.2,6.9l4.7-8.3L230.2,464.4
	z M234,469.6l-11.4-4.1l-4.8,13.2l11.4,4.1L234,469.6z M227.2,472v-49h-14v49H227.2z M223.1,429.4l9.4-4.3l-5.8-12.7l-9.4,4.3
	L223.1,429.4L223.1,429.4z M249.4,411.4h7v-10.9l-9.9,4.6L249.4,411.4L249.4,411.4z M249.4,463.8h-7v4.9l4.6,1.7L249.4,463.8z
	 M256.1,466.3l6.6,2.4l2.4-6.5l-6.5-2.4L256.1,466.3L256.1,466.3z M252.9,475l-2.4,6.6l6.6,2.4l2.4-6.6L252.9,475L252.9,475z
	 M240,470.3h-7v4.9l4.6,1.7L240,470.3L240,470.3z M240,415.8l-2.9-6.4l-4.1,1.9v4.5H240z M242.4,411.4v52.3h14v-52.3H242.4
	L242.4,411.4z M246.9,470.3l6.7,2.5l4.9-13.1l-6.7-2.5L246.9,470.3z M249.5,463.9l-3.2,8.7l13.2,4.8l3.2-8.7L249.5,463.9
	L249.5,463.9z M255.3,468.4l-13-4.7l-4.8,13.2l13,4.7L255.3,468.4z M247,470.3v-54.5h-14v54.5L247,470.3L247,470.3z M242.9,422.1
	l9.4-4.3l-5.8-12.7l-9.4,4.3L242.9,422.1L242.9,422.1z M286.6,436l5.6,4.2l5.9-7.8l-9.3-3L286.6,436L286.6,436z M266.8,462.2
	l-5.6-4.2l-6.2,8.2l10,2.7L266.8,462.2L266.8,462.2z M282.5,466.6l6.3,3l3.6-7.6l-8.1-2.2L282.5,466.6L282.5,466.6z M278.5,475
	l-1.7,6.8l5.6,1.4l2.5-5.2L278.5,475L278.5,475z M257.3,469.5h-7v5.4l5.3,1.4L257.3,469.5z M257.3,440.4l-5.1-4.8l-1.9,2v2.8H257.3z
	 M267.4,429.8l2.2-6.7l-4.2-1.4l-3,3.2L267.4,429.8L267.4,429.8z M266.8,456.9h-7v20.8l12.6-16.6L266.8,456.9z M277.3,442.9l5.6,4.2
	l5.9-7.8l-9.3-3.1L277.3,442.9L277.3,442.9z M266.8,439.5l2.2-6.7l-9.2-3v9.7H266.8z M281,431.8L261.2,458l11.2,8.4l19.8-26.2
	L281,431.8z M264.9,469l15.7,4.3l3.7-13.5l-15.7-4.3L264.9,469z M276.2,463.5l-4,8.4l12.6,6l4-8.4L276.2,463.5z M280.2,468.2
	l-21.2-5.5l-3.5,13.6l21.2,5.5L280.2,468.2L280.2,468.2z M264.3,469.5v-29.1h-14v29.1L264.3,469.5L264.3,469.5z M262.4,445.2
	l10.1-10.7l-10.2-9.6l-10.1,10.7L262.4,445.2L262.4,445.2z M265.2,436.4l19.2,6.2l4.3-13.3l-19.2-6.2L265.2,436.4z M272.4,461.1
	l10.6-13.9l-11.2-8.5l-10.6,13.9L272.4,461.1z M279.5,436.3l-10.6-3.5l-4.4,13.3l10.6,3.5L279.5,436.3z M259.8,439.5v17.4h14v-17.4
	H259.8z M303.5,429.8l2.4-6.6l-5-1.8l-3.1,4.4L303.5,429.8L303.5,429.8z M317.3,434.8l5.7,4.1l5.3-7.5l-8.7-3.1L317.3,434.8
	L317.3,434.8z M311.7,442.7l-2.3,6.6l5,1.8l3.1-4.3L311.7,442.7z M300.2,438.7l2.3-6.6l-9.3-3.3v9.9H300.2z M300.2,463.1h-7v4l3.5,2
	L300.2,463.1z M306.2,466.6l6.1,3.5l3.5-6l-6-3.5L306.2,466.6L306.2,466.6z M301.5,474.7l-3.5,6.1l6.1,3.5l3.5-6.1L301.5,474.7z
	 M290.8,468.6h-7v4l3.5,2L290.8,468.6z M290.8,441.8h7v-3.8l-3.2-2.1L290.8,441.8z M285.3,438.2l-5.9-3.8l-3.8,5.9l5.9,3.8
	L285.3,438.2z M290.4,430.3l3.8-5.9l-5.9-3.8l-3.8,5.9L290.4,430.3z M299.2,435.9l-3.8,5.9l5.6,3.6l3.9-5.5L299.2,435.9z
	 M301.1,436.4l13.8,5l4.8-13.2l-13.8-5L301.1,436.4z M311.6,430.7l-5.7,8l11.4,8.1l5.7-8L311.6,430.7z M314,436.1l-11.4-4l-4.7,13.2
	l11.4,4L314,436.1z M293.2,438.7v24.4h14v-24.4H293.2z M296.7,469.1l6,3.5l7-12.1l-6-3.5L296.7,469.1z M300.1,463.1l-4.7,8.2l12.1,7
	l4.7-8.2L300.1,463.1z M305,468.6l-10.7-6.1l-7,12.1l10.7,6.1L305,468.6z M297.8,468.6v-26.8h-14v26.8H297.8z M294.6,435.9l-5.6-3.6
	l-7.5,11.8l5.6,3.6L294.6,435.9z M291.2,442l5.1-8l-11.8-7.5l-5.1,8L291.2,442z M286.6,436.2l8.8,5.7L303,430l-8.8-5.7L286.6,436.2z
	 M304.9,440l4.3-6.1l-11.5-8.1l-4.3,6.1L304.9,440z"/>
<path class="st2" d="M177,411.4v23.6l4.3-4.9l14.4,3.6v57.9l-9.4,5.2v-55.7l-9.3-2.4v24.3l6,3.5l-4.7,8.2l-10.8-6.1v-52.3L177,411.4
	z M201.5,413.9h8.2l-2,12.9h-6.1V413.9z M201.9,430.3l10,6.3v26.5l6,3.5l-4.7,8.2l-10.7-6.1v-26.8l-5.6-3.6L201.9,430.3z
	 M229.6,418.7v10.8h5.9v9.5h-5.9v26.4l6.7,2.5l-4.7,8.3l-11.4-4.1v-49L229.6,418.7L229.6,418.7z M249.4,411.4v52.3l6.7,2.5l-3.2,8.7
	l-13-4.7v-54.5L249.4,411.4L249.4,411.4z M286.6,436l-19.8,26.2l15.7,4.3l-4,8.4l-21.2-5.5v-29.1l10.1-10.7L286.6,436L286.6,436z
	 M266.8,456.9l10.6-13.9l-10.6-3.5V456.9z M303.5,429.8l13.8,5l-5.7,8l-11.4-4v24.4l6,3.5l-4.7,8.2l-10.7-6.1v-26.8l-5.6-3.6l5.1-8
	l8.8,5.7L303.5,429.8L303.5,429.8z"/>
<path class="st3" d="M197.4,20.7c-0.4-2.7,1.6-5.2,4.3-5.6c0.2,0,0.4,0,0.7,0H247c2.8,0,5,2.2,5,5v90c0,2.8-2.2,5-5,5h-32.7
	c-2.5,0-4.6-1.9-5-4.3L197.4,20.7z"/>
<path class="st3" d="M283.6,20.7c0.4-2.7-1.6-5.2-4.3-5.6c-0.2,0-0.4,0-0.7,0H234c-2.8,0-5,2.2-5,5v90c0,2.8,2.2,5,5,5h32.7
	c2.5,0,4.6-1.9,5-4.3L283.6,20.7z"/>
<path class="st4" d="M228,20c0-2.8,2.2-5,5-5h15c2.8,0,5,2.2,5,5v90c0,2.8-2.2,5-5,5h-15c-2.8,0-5-2.2-5-5V20z"/>
<path class="st1" d="M210,128h60c2.8,0,5,2.2,5,5l0,0c0,2.8-2.2,5-5,5h-60c-2.8,0-5-2.2-5-5l0,0C205,130.2,207.2,128,210,128z"/>
<path class="st5" d="M315.8,300.5c0,42-34.1,76-76.1,76s-76.1-34.1-76.1-76s34.1-76.1,76.1-76.1S315.8,258.6,315.8,300.5z"/>
<path class="st6" d="M208.7,349c7.6-7.2,11.4-22.2,12.3-28.7c-15,0-26.3,8.2-30.1,12.3v-65.4c7.6,9.4,23.2,12.8,30.1,13.3
	c0-8.8-8.2-22.7-12.3-28.5h62.8c-10.3,11.5-12,23.8-11.6,28.5c11.9,0,24.4-7.5,29.1-11.3v63.4c-8.4-8.8-22.9-11.9-29.1-12.3
	c0.2,12.1,7.8,24.2,11.6,28.7H208.7z"/>
<path class="st7" d="M190,301v31.4c0,1,1.3,1.4,2,0.7c4.9-5.3,15.1-12.7,28.6-12.7 M190,301v-31.4c0-1,1.3-1.4,2-0.7
	c4.9,5.3,15.1,12.7,28.6,12.7 M240,251h-31.4c-1,0-1.4,1.3-0.7,2c5.3,4.9,12.7,15.1,12.7,28.6 M240,251h31.4c1,0,1.4,1.3,0.7,2
	c-5.3,4.9-12.7,15.1-12.7,28.6 M290,301v-31.4c0-1-1.3-1.4-2-0.7c-4.9,5.3-15.1,12.7-28.6,12.7 M290,301v31.4c0,1-1.3,1.4-2,0.7
	c-4.9-5.3-15.1-12.7-28.6-12.7 M240,351h31.4c1,0,1.4-1.3,0.7-2c-5.3-4.9-12.7-15.1-12.7-28.6 M240,351h-31.4c-1,0-1.4-1.3-0.7-2
	c5.3-4.9,12.7-15.1,12.7-28.6"/>
<path class="st5" d="M189.3,158H99.5c-2.7,0-4,3.3-2.1,5.2l15.7,15c0.6,0.5,1.3,0.8,2.1,0.8h64.6c0.8,0,1.6,0.3,2.1,0.9l57,57
	c1.2,1.2,3.1,1.2,4.2,0l57-57c0.6-0.6,1.3-0.9,2.1-0.9h60.5c0.8,0,1.6-0.3,2.1-0.9l15-15c1.9-1.9,0.6-5.1-2.1-5.1h-85
	c-0.8,0-1.6,0.3-2.1,0.9l-47.5,47.5c-1.2,1.2-3.1,1.2-4.2,0l-47.5-47.5C190.8,158.3,190.1,158,189.3,158z"/>
<path class="st8" d="M201.4,175h-67c-2.7,0-4,3.3-2.1,5.2l10.7,10.3c0.6,0.5,1.3,0.8,2.1,0.8h49c0.8,0,1.6,0.3,2.1,0.9l43.1,43.6
	c1.2,1.2,3.1,1.2,4.2,0c0,0,0,0,0,0l43.1-43.6c0.6-0.6,1.3-0.9,2.1-0.9h45.9c0.8,0,1.6-0.3,2.1-0.9l10.2-10.3
	c1.9-1.9,0.5-5.1-2.1-5.1h-63.4c-0.8,0-1.6,0.3-2.1,0.9l-35.8,36.2c-1.2,1.2-3.1,1.2-4.2,0c0,0,0,0,0,0l-35.8-36.2
	C203,175.3,202.2,175,201.4,175z"/>
<path class="st5" d="M273.1,150h-63.7c-0.9,0-1.3,1.1-0.7,1.7l31.6,32.1c0.4,0.4,1,0.4,1.4,0c0,0,0,0,0,0l32.1-32.1
	C274.4,151.1,274,150,273.1,150z"/>
</svg>
