<svg xmlns="http://www.w3.org/2000/svg" width="15" height="15" fill="none" viewBox="0 0 15 15">
    <path fill="#44939D" d="M7.31 3.586a.2.2 0 0 1 .38 0l.775 2.385a.2.2 0 0 0 .19.139h2.51a.2.2 0 0 1 .117.361l-2.03 1.475a.2.2 0 0 0-.072.223l.775 2.386a.2.2 0 0 1-.308.224l-2.03-1.475a.2.2 0 0 0-.235 0L5.353 10.78a.2.2 0 0 1-.308-.224L5.82 8.17a.2.2 0 0 0-.072-.223L3.718 6.47a.2.2 0 0 1 .118-.361h2.508a.2.2 0 0 0 .19-.139l.776-2.385z"/>
    <circle cx="7.5" cy="7.5" r="6.5" stroke="#44939D" stroke-width="2"/>
</svg>
