<?xml version="1.0" encoding="utf-8"?>
<!-- Generator: Adobe Illustrator 22.1.0, SVG Export Plug-In . SVG Version: 6.00 Build 0)  -->
<svg version="1.1" id="Layer_1" xmlns="http://www.w3.org/2000/svg" xmlns:xlink="http://www.w3.org/1999/xlink" x="0px" y="0px"
	 viewBox="0 0 480 570" style="enable-background:new 0 0 480 570;" xml:space="preserve">
<style type="text/css">
	.st0{fill:#B84936;stroke:#EFE3B8;stroke-width:20;stroke-linecap:square;stroke-linejoin:round;}
	.st1{fill:#EFE3B8;}
	.st2{fill:#353535;}
	.st3{fill:none;stroke:#EFE3B8;stroke-width:10;stroke-linecap:round;stroke-linejoin:round;}
	.st4{fill:#353535;stroke:#EFE3B8;stroke-width:10;}
	.st5{fill:#B84936;stroke:#EFE3B8;stroke-width:10;}
</style>
<path class="st0" d="M10,20c0-5.5,4.5-10,10-10h440c5.5,0,10,4.5,10,10v530c0,5.5-4.5,10-10,10H20c-5.5,0-10-4.5-10-10V20z"/>
<path class="st1" d="M160,429.5v-7h-7v7H160z M164.2,429.5v7h7v-7H164.2z M164.2,416.7l-4.5-5.4l-2.5,2.1v3.3L164.2,416.7
	L164.2,416.7z M175.3,407.4l3.6-6l-4.3-2.6l-3.8,3.2L175.3,407.4L175.3,407.4z M187.1,414.5l6,3.6l3.6-6l-6-3.6L187.1,414.5
	L187.1,414.5z M182.3,422.6l-3.6,6l6,3.7l3.6-6.1L182.3,422.6z M173.7,417.4l3.6-6l-10.6-6.5v12.4H173.7z M173.7,429.5h-7v7h7V429.5
	z M179.6,429.5h7v-7h-7V429.5z M179.6,439v7h7v-7H179.6z M173.7,439v-7h-7v7H173.7z M173.7,492.3l3.4,6.1l3.6-2v-4.1L173.7,492.3
	L173.7,492.3z M164.2,497.7h-7v12l10.4-5.9L164.2,497.7L164.2,497.7z M164.2,439h7v-7h-7V439z M160,439h-7v7h7V439z M160,436.5h4.2
	v-14H160V436.5z M171.2,429.5v-12.8h-14v12.8H171.2z M168.8,422.1l11-9.3l-9-10.7l-11,9.3L168.8,422.1z M171.7,413.4l11.8,7.1
	l7.2-12l-11.8-7.1L171.7,413.4z M181.1,410.9l-4.8,8.1l12,7.2l4.8-8.1L181.1,410.9z M185.9,416.6l-8.5-5.2l-7.3,12l8.5,5.2
	L185.9,416.6z M166.7,417.4v12.1h14v-12.1H166.7z M173.7,436.5h5.9v-14h-5.9V436.5z M172.6,429.5v9.5h14v-9.5H172.6z M179.6,432
	h-5.9v14h5.9V432z M166.7,439v53.3h14V439H166.7z M170.3,486.2l-9.5,5.4l6.9,12.2l9.5-5.4L170.3,486.2z M171.2,497.7V439h-14v58.7
	H171.2z M164.2,432H160v14h4.2V432z M167,439v-9.5h-14v9.5H167z M192.1,438.6l1.5-6.8l-8.5-1.9v8.7L192.1,438.6L192.1,438.6z
	 M192.1,462.4h-7v5.2l5,1.5L192.1,462.4z M203.6,465.8l-2,6.7l9,2.6v-9.4H203.6z M203.6,441.1h7v-5.6l-5.5-1.2L203.6,441.1z
	 M203.8,468.7l3.4-6.1l-5.8-3.3l-3.5,5.7L203.8,468.7z M199.8,475l-2.2,6.7l5.2,1.7l2.9-4.7L199.8,475z M182.4,469.3h-7v5.1l4.8,1.6
	L182.4,469.3z M182.4,436.9l-4-5.7l-3,2.1v3.6H182.4z M193.3,429.2l1.5-6.8l-3-0.6l-2.5,1.8L193.3,429.2L193.3,429.2z M213.4,433.5
	h7v-5.7l-5.5-1.2L213.4,433.5L213.4,433.5z M213.4,463.1h-7v3.9l3.3,2.1L213.4,463.1L213.4,463.1z M218.9,466.6l6,3.5l3.5-5.9
	l-5.8-3.6L218.9,466.6L218.9,466.6z M214.1,474.7l-3.6,6l6,3.5l3.5-6L214.1,474.7L214.1,474.7z M206,469.9l3.5-6l-0.1,0l-0.1,0
	L206,469.9z M185.1,438.6v23.8h14v-23.8H185.1z M190.2,469.1l11.4,3.4l4-13.4l-11.4-3.4L190.2,469.1z M210.6,465.8v-24.7h-14v24.7
	H210.6z M205.1,434.3l-11.4-2.5l-3,13.7l11.4,2.5L205.1,434.3z M197.8,465l-3.9,6.3l11.9,7.4l3.9-6.3L197.8,465z M202,468.3
	l-17.4-5.7l-4.3,13.3l17.4,5.7L202,468.3z M189.4,469.3v-32.4h-14v32.4H189.4z M186.5,442.6l10.8-7.7l-8.1-11.4l-10.8,7.7
	L186.5,442.6L186.5,442.6z M191.8,436.1l20.1,4.3l2.9-13.7l-20.1-4.3L191.8,436.1z M206.4,433.5v29.6h14v-29.6H206.4z M209.7,469
	l5.6,3.5l7.4-11.9l-5.6-3.5L209.7,469z M212.9,463l-4.8,8.2l12.1,7.1l4.8-8.2L212.9,463z M217.7,468.7l-8.2-4.8l-7.1,12.1l8.2,4.8
	L217.7,468.7z M209.4,463.8l-2.2-1.2l-6.9,12.2l2.2,1.2L209.4,463.8L209.4,463.8z M231.4,421.1l3.1-6.3l-10.1-4.9v11.2L231.4,421.1
	L231.4,421.1z M231.4,492l3.6,6l3.4-2v-4L231.4,492L231.4,492z M222,497.7h-7V510l10.6-6.4L222,497.7z M222,420.6l-5.1-4.8l-1.9,2
	v2.8H222z M230.8,411.4l2.7-6.5l-4.4-1.8l-3.3,3.4L230.8,411.4z M241,415.7l6.9,1.4l1.2-5.7l-5.4-2.2L241,415.7z M239.1,424.9
	l-3.1,6.3l8.1,3.9l1.8-8.8L239.1,424.9L239.1,424.9z M224.4,421.1V492h14v-70.8H224.4z M227.8,486l-9.4,5.7l7.2,12l9.4-5.7
	L227.8,486z M229,497.7v-77.1h-14v77.1H229z M227.1,425.4l8.7-9.1l-10.1-9.7l-8.7,9.1L227.1,425.4z M228.1,417.9l10.3,4.2l5.3-12.9
	l-10.3-4.2L228.1,417.9z M234.2,414.2l-1.9,9.2l13.7,2.9l1.9-9.2L234.2,414.2z M242.2,418.6l-7.7-3.7l-6.1,12.6l7.7,3.7L242.2,418.6
	L242.2,418.6z M257.9,441.6l-1.5,6.8l5.3,1.2l2.5-4.8L257.9,441.6z M247.1,439.2l1.5-6.8l-8.5-1.9v8.7L247.1,439.2L247.1,439.2z
	 M247.1,462.8h-7v5.5l5.3,1.3L247.1,462.8z M262.9,466.7l5.8,4l5.7-8.3l-9.8-2.4L262.9,466.7L262.9,466.7z M257.2,475l-1.7,6.8
	l4.7,1.2l2.7-4L257.2,475L257.2,475z M237.6,470.2h-7v5.5l5.3,1.3L237.6,470.2L237.6,470.2z M237.6,439.6l-4.4-5.4l-2.6,2.1v3.3
	L237.6,439.6L237.6,439.6z M249.8,429.6l1.5-6.8L248,422l-2.6,2.1L249.8,429.6z M262.6,432.4l6.2,3.2l4.1-8.1l-8.9-1.9L262.6,432.4
	L262.6,432.4z M259.4,434.8l-10.8-2.4l-3,13.7l10.8,2.4L259.4,434.8L259.4,434.8z M240.1,439.2v23.6h14v-23.6H240.1z M245.5,469.6
	l15.7,3.9l3.4-13.6l-15.7-3.9L245.5,469.6L245.5,469.6z M257.1,462.8l-5.7,8.3L263,479l5.7-8.3L257.1,462.8z M258.9,468.2l-19.6-4.8
	L236,477l19.6,4.8L258.9,468.2z M244.6,470.2v-30.6h-14v30.6H244.6z M242.1,445l12.2-10l-8.9-10.8l-12.2,10L242.1,445z M248.3,436.4
	l12.8,2.8l3-13.7l-12.8-2.8L248.3,436.4z M256.4,429.2l-4.7,9.2l12.5,6.4l4.7-9.2L256.4,429.2L256.4,429.2z M266.9,413.9v-7h-7v7
	H266.9z M275.1,413.9l6.9,1.1l1.3-8.1h-8.2V413.9L275.1,413.9z M273.1,426.8v7h6l0.9-5.9L273.1,426.8z M266.9,426.8h-7v7h7V426.8z
	 M267.3,430.3l3.8-5.9l-5.9-3.8l-3.7,6L267.3,430.3z M277.3,436.6h7v-3.8l-3.2-2.1L277.3,436.6z M277.3,463.1h-7v4l3.5,2
	L277.3,463.1z M283.3,466.6l6.1,3.5l3.5-6l-6-3.5L283.3,466.6L283.3,466.6z M278.5,474.7l-3.5,6.1l6.1,3.5l3.5-6.1L278.5,474.7z
	 M267.9,468.6h-7v4l3.5,2L267.9,468.6z M267.9,441.8h7v-3.8l-3.2-2.1L267.9,441.8z M262.3,438.2l-5.9-3.7l-3.7,5.9l5.9,3.7
	L262.3,438.2z M266.9,420.9h8.2v-14h-8.2V420.9z M268.2,412.9l-2,12.9l13.8,2.2l2-12.9L268.2,412.9z M273.1,419.8h-6.1v14h6.1V419.8
	z M273.9,426.8v-12.9h-14v12.9H273.9z M263.6,436.2l10,6.3l7.5-11.8l-10-6.3L263.6,436.2z M270.3,436.6v26.5h14v-26.5L270.3,436.6
	L270.3,436.6z M273.8,469.1l6,3.5l7-12.1l-6-3.5L273.8,469.1z M277.2,463.1l-4.7,8.2l12.1,7l4.7-8.2L277.2,463.1z M282,468.6
	l-10.7-6.1l-7,12.1l10.7,6.1L282,468.6z M274.9,468.6v-26.8h-14v26.8H274.9z M271.7,435.9l-5.6-3.6l-7.5,11.8l5.6,3.6L271.7,435.9z
	 M268.3,441.9l5-8l-11.9-7.4l-5,8L268.3,441.9z M295.9,421.1l3.1-6.3l-10.1-4.9v11.2L295.9,421.1L295.9,421.1z M295.9,492l3.6,6
	l3.4-2v-4L295.9,492L295.9,492z M286.5,497.7h-7V510l10.6-6.4L286.5,497.7z M286.5,420.6l-5.1-4.8l-1.9,2v2.8H286.5z M295.3,411.4
	l2.7-6.5l-4.4-1.8l-3.3,3.4L295.3,411.4L295.3,411.4z M305.5,415.7l6.9,1.4l1.2-5.7l-5.4-2.2L305.5,415.7z M303.6,424.9l-3.1,6.3
	l8.1,3.9l1.8-8.8L303.6,424.9L303.6,424.9z M288.9,421.1V492h14v-70.8H288.9z M292.3,486l-9.4,5.7l7.2,12l9.4-5.7L292.3,486z
	 M293.5,497.7v-77.1h-14v77.1H293.5z M291.6,425.4l8.7-9.1l-10.1-9.7l-8.7,9.1L291.6,425.4z M292.6,417.9l10.3,4.2l5.3-12.9
	l-10.3-4.2L292.6,417.9z M298.7,414.2l-1.9,9.2l13.7,2.9l1.9-9.2L298.7,414.2z M306.7,418.6l-7.7-3.7l-6.1,12.6l7.7,3.7L306.7,418.6
	L306.7,418.6z M312.1,418.7h7v-10.9l-9.9,4.6L312.1,418.7z M312.1,429.5h-7v7h7V429.5z M318,429.5h7v-7h-7V429.5z M318,439v7h7v-7
	H318z M312.1,439v-7h-7v7H312.1z M312.1,465.4h-7v4.9l4.6,1.7L312.1,465.4z M318.8,467.9l6.1,3.5l4.1-7.2l-7.7-2.9L318.8,467.9
	L318.8,467.9z M314.1,476.2l-2.4,6.6l5.5,2l2.9-5.1L314.1,476.2z M302.7,472h-7v4.9l4.6,1.7L302.7,472z M302.7,423.1l-2.9-6.4
	l-4.1,1.9v4.5H302.7z M305.1,418.7v10.8h14v-10.8H305.1z M312.1,436.5h5.9v-14h-5.9V436.5z M311,429.5v9.5h14v-9.5L311,429.5
	L311,429.5z M318,432h-5.9v14h5.9V432z M305.1,439v26.4h14V439L305.1,439L305.1,439z M309.7,472l6.7,2.5l4.9-13.1l-6.7-2.5
	L309.7,472z M312.8,464.4l-4.7,8.3l12.2,6.9l4.7-8.3L312.8,464.4z M316.5,469.6l-11.4-4.1l-4.8,13.2l11.4,4.1L316.5,469.6z
	 M309.7,472v-49h-14v49H309.7z M305.6,429.4l9.4-4.3l-5.8-12.7l-9.4,4.3L305.6,429.4L305.6,429.4z"/>
<path class="st2" d="M160,429.5h4.2v-12.8l11-9.3l11.8,7.1l-4.8,8.1l-8.5-5.2v12.1h5.9v9.5h-5.9v53.3l-9.5,5.4V439H160L160,429.5
	L160,429.5z M192.1,438.6v23.8l11.4,3.4v-24.7L192.1,438.6z M203.8,468.7l-3.9,6.3l-17.4-5.7v-32.4l10.8-7.7l20.1,4.3v29.6l5.6,3.5
	l-4.8,8.2l-8.2-4.8L203.8,468.7L203.8,468.7z M231.4,421.1V492l-9.4,5.7v-77.1l8.7-9.1l10.3,4.2l-1.9,9.2L231.4,421.1z M257.9,441.6
	l-10.8-2.4v23.6l15.7,3.9l-5.7,8.3l-19.6-4.8v-30.6l12.2-10l12.8,2.8L257.9,441.6z M266.9,413.9h8.2l-2,12.9h-6.1V413.9z
	 M267.3,430.3l10,6.3v26.5l6,3.5l-4.7,8.2l-10.7-6.1v-26.8l-5.6-3.6L267.3,430.3z M295.9,421.1V492l-9.4,5.7v-77.1l8.7-9.1l10.3,4.2
	l-1.9,9.2L295.9,421.1z M312.1,418.7v10.8h5.9v9.5h-5.9v26.4l6.7,2.5l-4.7,8.3l-11.4-4.1v-49L312.1,418.7L312.1,418.7z"/>
<path class="st2" d="M189.7,308.5c12.2-11.5,18.3-35.6,19.8-46.2c-24.1,0-42.2,13.2-48.2,19.8V177c12.2,15.2,37.3,20.6,48.2,21.4
	c0-14.2-13.2-36.4-19.8-45.8h100.6c-16.5,18.5-19.2,38.2-18.6,45.8c19.1,0,39-12.1,46.6-18.1v101.9c-13.5-14.2-36.7-19.1-46.6-19.8
	c0.3,19.5,12.5,38.9,18.6,46.2H189.7z"/>
<path class="st3" d="M160,231v52.1c0,1,1.3,1.4,1.9,0.7c7.3-8.5,24.2-21.7,47.1-21.7 M160,231v-52.1c0-1,1.3-1.4,1.9-0.7
	c7.3,8.5,24.2,21.7,47.1,21.7 M240,151h-52.1c-1,0-1.4,1.3-0.7,1.9c8.5,7.3,21.7,24.2,21.7,47.1 M240,151h52.1c1,0,1.4,1.3,0.7,1.9
	c-8.5,7.3-21.7,24.2-21.7,47.1 M320,231v-52.1c0-1-1.3-1.4-1.9-0.7c-7.3,8.5-24.2,21.7-47.1,21.7 M320,231v52.1c0,1-1.3,1.4-1.9,0.7
	c-7.3-8.5-24.2-21.7-47.1-21.7 M240,311h52.1c1,0,1.4-1.3,0.7-1.9c-8.5-7.3-21.7-24.2-21.7-47.1 M240,311h-52.1
	c-1,0-1.4-1.3-0.7-1.9c8.5-7.3,21.7-24.2,21.7-47.1"/>
<path class="st4" d="M179.9,21.5c-1-3.2,1.4-6.5,4.8-6.5h44.1c2.2,0,4.1,1.4,4.8,3.5l28.6,90c1,3.2-1.4,6.5-4.8,6.5h-44.1
	c-2.2,0-4.1-1.4-4.8-3.5L179.9,21.5L179.9,21.5z"/>
<path class="st5" d="M299.1,21.5c1-3.2-1.4-6.5-4.8-6.5h-44.1c-2.2,0-4.1,1.4-4.8,3.5L214.8,115h50.9c2.2,0,4.1-1.4,4.8-3.5
	L299.1,21.5L299.1,21.5z"/>
<path class="st1" d="M210,128h60c2.8,0,5,2.2,5,5l0,0c0,2.8-2.2,5-5,5h-60c-2.8,0-5-2.2-5-5l0,0C205,130.2,207.2,128,210,128z"/>
<path class="st4" d="M179.9,21.5c-1-3.2,1.4-6.5,4.8-6.5h44.1c2.2,0,4.1,1.4,4.8,3.5l28.6,90c1,3.2-1.4,6.5-4.8,6.5h-44.1
	c-2.2,0-4.1-1.4-4.8-3.5L179.9,21.5L179.9,21.5z"/>
<path class="st5" d="M299.1,21.5c1-3.2-1.4-6.5-4.8-6.5h-44.1c-2.2,0-4.1,1.4-4.8,3.5L214.8,115h50.9c2.2,0,4.1-1.4,4.8-3.5
	L299.1,21.5L299.1,21.5z"/>
<path class="st1" d="M239,20h1v1h-1V20z"/>
</svg>
