<svg xmlns="http://www.w3.org/2000/svg" width="300" height="360" fill="none" viewBox="0 0 300 360">
    <g clip-path="url(#a)">
        <path fill="#fff" d="M0 0h300v360H0z"/>
        <rect width="300" height="360" fill="#B84936" stroke="#EFE3B8" stroke-linecap="round" stroke-linejoin="round" stroke-width="10" rx="10"/>
        <path stroke="#B84936" stroke-linecap="round" stroke-linejoin="round" stroke-width="7" d="M110 180v24.515c0 .969 1.319 1.438 1.994.745 4.081-4.187 12.059-9.743 22.489-9.743M110 180v-24.515c0-.969 1.319-1.438 1.994-.745 4.081 4.187 12.059 9.743 22.489 9.743M150 140h-24.515c-.969 0-1.438 1.319-.745 1.994 4.187 4.081 9.743 12.059 9.743 22.489M150 140h24.515c.969 0 1.438 1.319.745 1.994-4.187 4.081-9.743 12.059-9.743 22.489M190 180v-24.515c0-.969-1.319-1.438-1.994-.745-4.081 4.187-12.059 9.743-22.489 9.743M190 180v24.515c0 .969-1.319 1.438-1.994.745-4.081-4.187-12.059-9.743-22.489-9.743M150 220h24.515c.969 0 1.438-1.319.745-1.994-4.187-4.081-9.743-12.059-9.743-22.489M150 220h-24.515c-.969 0-1.438-1.319-.745-1.994 4.187-4.081 9.743-12.059 9.743-22.489"/>
        <path stroke="#EFE3B8" stroke-linecap="round" stroke-linejoin="round" stroke-width="7" d="M110 180v24.515c0 .969 1.319 1.438 1.994.745 4.081-4.187 12.059-9.743 22.489-9.743M110 180v-24.515c0-.969 1.319-1.438 1.994-.745 4.081 4.187 12.059 9.743 22.489 9.743M150 140h-24.515c-.969 0-1.438 1.319-.745 1.994 4.187 4.081 9.743 12.059 9.743 22.489M150 140h24.515c.969 0 1.438 1.319.745 1.994-4.187 4.081-9.743 12.059-9.743 22.489M190 180v-24.515c0-.969-1.319-1.438-1.994-.745-4.081 4.187-12.059 9.743-22.489 9.743M190 180v24.515c0 .969-1.319 1.438-1.994.745-4.081-4.187-12.059-9.743-22.489-9.743M150 220h24.515c.969 0 1.438-1.319.745-1.994-4.187-4.081-9.743-12.059-9.743-22.489M150 220h-24.515c-.969 0-1.438-1.319-.745-1.994 4.187-4.081 9.743-12.059 9.743-22.489"/>
        <rect width="8" height="65" x="147" y="61" fill="#EFE3B8" rx="4"/>
        <rect width="8" height="50" x="129" y="76" fill="#EFE3B8" rx="4"/>
        <rect width="8" height="50" x="164" y="76" fill="#EFE3B8" rx="4"/>
        <rect width="8" height="65" x="147" y="234" fill="#EFE3B8" rx="4"/>
        <rect width="8" height="50" x="129" y="234" fill="#EFE3B8" rx="4"/>
        <rect width="8" height="50" x="164" y="234" fill="#EFE3B8" rx="4"/>
    </g>
    <defs>
        <clipPath id="a">
            <path fill="#fff" d="M0 0h300v360H0z"/>
        </clipPath>
    </defs>
</svg>
