<?xml version="1.0" encoding="utf-8"?>
<!-- Generator: Adobe Illustrator 22.1.0, SVG Export Plug-In . SVG Version: 6.00 Build 0)  -->
<svg version="1.1" id="Layer_1" xmlns="http://www.w3.org/2000/svg" xmlns:xlink="http://www.w3.org/1999/xlink" x="0px" y="0px"
	 viewBox="0 0 480 570" style="enable-background:new 0 0 480 570;" xml:space="preserve">
<style type="text/css">
	.st0{fill:#44939D;stroke:#EFE3B8;stroke-width:20;stroke-linecap:round;stroke-linejoin:round;}
	.st1{fill:#EFE3B8;}
	.st2{fill:#1A3044;}
	.st3{fill:#1A3044;stroke:#EFE3B8;stroke-width:10;}
	.st4{fill:#44939D;stroke:#EFE3B8;stroke-width:10;}
	.st5{fill:#44939D;}
	.st6{fill:#EFE3B8;stroke:#EFE3B8;}
</style>
<path class="st0" d="M20,10h440c5.5,0,10,4.5,10,10v530c0,5.5-4.5,10-10,10H20c-5.5,0-10-4.5-10-10V20C10,14.5,14.5,10,20,10z"/>
<path class="st1" d="M155.4,411.4h7v-10.9l-9.9,4.6L155.4,411.4z M155.4,463.8h-7v4.9l4.6,1.7L155.4,463.8z M162.1,466.3l6.6,2.4
	l2.4-6.5l-6.5-2.4L162.1,466.3z M158.9,475l-2.4,6.6l6.6,2.4l2.4-6.6L158.9,475z M146,470.3h-7v4.9l4.6,1.7L146,470.3L146,470.3z
	 M146,415.8l-2.9-6.4l-4.1,1.9v4.5H146z M148.4,411.4v52.3h14v-52.3H148.4z M152.9,470.3l6.7,2.5l4.9-13.1l-6.7-2.5L152.9,470.3z
	 M155.5,463.9l-3.2,8.7l13.2,4.8l3.2-8.7L155.5,463.9z M161.3,468.4l-13-4.7l-4.8,13.2l13,4.7L161.3,468.4z M153,470.3v-54.5h-14
	v54.5L153,470.3L153,470.3z M148.9,422.1l9.4-4.3l-5.8-12.7l-9.4,4.3L148.9,422.1L148.9,422.1z M165.3,413.9v-7h-7v7H165.3z
	 M173.5,413.9l6.9,1.1l1.3-8.1h-8.2L173.5,413.9L173.5,413.9z M171.5,426.8v7h6l0.9-5.9L171.5,426.8L171.5,426.8z M165.3,426.8h-7v7
	h7V426.8z M165.7,430.3l3.8-5.9l-5.9-3.8l-3.7,6L165.7,430.3z M175.7,436.6h7v-3.8l-3.2-2.1L175.7,436.6z M175.7,463.1h-7v4l3.5,2
	L175.7,463.1z M181.6,466.6l6.1,3.5l3.5-6l-6-3.5L181.6,466.6z M176.9,474.7l-3.5,6.1l6.1,3.5l3.5-6.1L176.9,474.7L176.9,474.7z
	 M166.3,468.6h-7v4l3.5,2L166.3,468.6z M166.3,441.8h7v-3.8l-3.2-2.1L166.3,441.8z M160.7,438.2l-5.9-3.7l-3.7,5.9l5.9,3.7
	L160.7,438.2L160.7,438.2z M165.3,420.9h8.2v-14h-8.2V420.9z M166.6,412.9l-2,12.9l13.8,2.2l2-12.9L166.6,412.9z M171.5,419.8h-6.1
	v14h6.1V419.8z M172.3,426.8v-12.9h-14v12.9H172.3z M161.9,436.2l10,6.3l7.5-11.8l-10-6.3L161.9,436.2z M168.7,436.6v26.5h14v-26.5
	L168.7,436.6L168.7,436.6z M172.2,469.1l6,3.5l7-12.1l-6-3.5L172.2,469.1z M175.6,463.1l-4.7,8.2l12.1,7l4.7-8.2L175.6,463.1z
	 M180.4,468.6l-10.7-6.1l-7,12.1l10.7,6.1L180.4,468.6z M173.3,468.6v-26.8h-14v26.8H173.3z M170,435.9l-5.6-3.6l-7.5,11.8l5.6,3.6
	L170,435.9z M166.6,441.9l5-8l-11.9-7.4l-5,8L166.6,441.9z M204.5,465.5l-2,6.7l9,2.7v-9.4H204.5z M204.5,442h7v-5.2l-5-1.5
	L204.5,442z M193.7,438.7l2-6.7l-9-2.7v9.4H193.7z M193.7,462.2h-7v5.2l5,1.5L193.7,462.2z M193.7,435.9h-7v24.7l13-21.1
	L193.7,435.9L193.7,435.9z M197.6,429.7l2.1-6.7l-5.2-1.6l-2.8,4.6L197.6,429.7z M214,434.8h7v-5.2l-4.9-1.5L214,434.8z M214,465.9
	l4.4,5.5l2.6-2.1v-3.4L214,465.9L214,465.9z M202.6,475l-2,6.7l3.5,1l2.9-2.3L202.6,475z M184.2,469.5h-7v5.2l5,1.5L184.2,469.5z
	 M184.2,411.4l-2.9-6.3l-4.1,1.9v4.5H184.2z M193.7,407h7v-11l-9.9,4.6L193.7,407L193.7,407z M211.5,465.5V442h-14v23.5H211.5z
	 M206.5,435.3l-10.8-3.3l-4.1,13.4l10.8,3.3L206.5,435.3z M186.7,438.7v23.5h14v-23.5H186.7z M191.7,468.9l10.8,3.3l4.1-13.4
	l-10.8-3.3L191.7,468.9z M199.7,439.6l3.8-6.2l-11.9-7.3l-3.8,6.2L199.7,439.6z M195.5,436.4l16.4,5.1l4.1-13.4l-16.4-5.1
	L195.5,436.4z M207,434.8v31.1h14v-31.1H207z M209.6,460.4l-11.4,9.1l8.7,10.9l11.4-9.1L209.6,460.4z M204.6,468.3l-18.3-5.5
	l-4,13.4l18.3,5.5L204.6,468.3z M191.2,469.5v-58.1h-14v58.1L191.2,469.5L191.2,469.5z M187.2,417.8l9.5-4.4l-5.9-12.7l-9.5,4.4
	L187.2,417.8z M186.7,407v28.9h14V407H186.7z M248.7,436l5.6,4.2l5.9-7.8l-9.3-3L248.7,436L248.7,436z M229,462.2l-5.6-4.2l-6.2,8.2
	l10,2.7L229,462.2L229,462.2z M244.7,466.6l6.3,3l3.6-7.6l-8.1-2.2L244.7,466.6L244.7,466.6z M240.7,475l-1.7,6.8l5.6,1.4l2.5-5.2
	L240.7,475z M219.4,469.5h-7v5.4l5.3,1.4L219.4,469.5z M219.4,440.4l-5.1-4.8l-1.9,2v2.8H219.4z M229.5,429.8l2.2-6.7l-4.2-1.4
	l-3,3.2L229.5,429.8L229.5,429.8z M229,456.9h-7v20.8l12.6-16.6L229,456.9z M239.5,442.9l5.6,4.2l5.9-7.8l-9.3-3.1L239.5,442.9z
	 M229,439.5l2.2-6.7l-9.2-3v9.7H229z M243.1,431.8L223.4,458l11.2,8.4l19.8-26.2L243.1,431.8z M227.1,469l15.7,4.3l3.7-13.5
	l-15.7-4.3L227.1,469z M238.4,463.5l-4,8.4l12.6,6l4-8.4L238.4,463.5z M242.4,468.2l-21.2-5.5l-3.5,13.6l21.2,5.5L242.4,468.2
	L242.4,468.2z M226.4,469.5v-29.1h-14v29.1L226.4,469.5L226.4,469.5z M224.5,445.2l10.1-10.7l-10.2-9.6l-10.1,10.7L224.5,445.2z
	 M227.4,436.4l19.2,6.2l4.3-13.3l-19.2-6.2L227.4,436.4z M234.5,461.1l10.6-13.9l-11.2-8.5l-10.6,13.9L234.5,461.1z M241.7,436.3
	l-10.6-3.5l-4.4,13.3l10.6,3.5L241.7,436.3z M222,439.5v17.4h14v-17.4H222z M265.7,429.8l2.4-6.6l-5-1.8l-3.1,4.4L265.7,429.8
	L265.7,429.8z M279.5,434.8l5.7,4.1l5.3-7.5l-8.7-3.1L279.5,434.8L279.5,434.8z M273.8,442.7l-2.3,6.6l5,1.8l3.1-4.3L273.8,442.7z
	 M262.4,438.7l2.3-6.6l-9.3-3.3v9.9H262.4L262.4,438.7z M262.4,463.1h-7v4l3.5,2L262.4,463.1z M268.4,466.6l6.1,3.5l3.5-6l-6-3.5
	L268.4,466.6L268.4,466.6z M263.7,474.7l-3.5,6.1l6.1,3.5l3.5-6.1L263.7,474.7z M253,468.6h-7v4l3.5,2L253,468.6z M253,441.8h7v-3.8
	l-3.2-2.1L253,441.8L253,441.8z M247.4,438.2l-5.9-3.8l-3.8,5.9l5.9,3.8L247.4,438.2z M252.5,430.3l3.8-5.9l-5.9-3.8l-3.8,5.9
	L252.5,430.3z M261.4,435.9l-3.8,5.9l5.6,3.6l3.9-5.5L261.4,435.9z M263.3,436.4l13.8,5l4.8-13.2l-13.8-5L263.3,436.4z M273.8,430.7
	l-5.7,8l11.4,8.1l5.7-8L273.8,430.7z M276.2,436.1l-11.4-4l-4.7,13.2l11.4,4L276.2,436.1z M255.4,438.7v24.4h14v-24.4H255.4z
	 M258.9,469.1l6,3.5l7-12.1l-6-3.5L258.9,469.1z M262.3,463.1l-4.7,8.2l12.1,7l4.7-8.2L262.3,463.1z M267.2,468.6l-10.7-6.1l-7,12.1
	l10.7,6.1L267.2,468.6z M260,468.6v-26.8h-14v26.8H260z M256.8,435.9l-5.6-3.6l-7.5,11.8l5.6,3.6L256.8,435.9z M253.3,442l5.1-8
	l-11.8-7.5l-5.1,8L253.3,442z M248.7,436.2l8.8,5.7l7.6-11.8l-8.8-5.7L248.7,436.2z M267.1,440l4.3-6.1l-11.5-8.1l-4.3,6.1
	L267.1,440z M290.4,438.6l1.5-6.8l-8.5-1.9v8.7L290.4,438.6L290.4,438.6z M290.4,462.4h-7v5.2l5,1.5L290.4,462.4z M301.8,465.8
	l-2,6.7l9,2.6v-9.4H301.8z M301.8,441.1h7v-5.6l-5.5-1.2L301.8,441.1z M302,468.7l3.4-6.1l-5.8-3.3l-3.5,5.7L302,468.7L302,468.7z
	 M298.1,475l-2.2,6.7l5.2,1.7l2.9-4.7L298.1,475z M280.7,469.3h-7v5.1l4.8,1.6L280.7,469.3z M280.7,436.9l-4-5.7l-3,2.1v3.6H280.7z
	 M291.5,429.2l1.5-6.8l-3-0.6l-2.5,1.8L291.5,429.2L291.5,429.2z M311.6,433.5h7v-5.7l-5.5-1.2L311.6,433.5L311.6,433.5z
	 M311.6,463.1h-7v3.9l3.3,2.1L311.6,463.1L311.6,463.1z M317.2,466.6l6,3.5l3.5-5.9l-5.8-3.6L317.2,466.6L317.2,466.6z M312.4,474.7
	l-3.5,6l6,3.5l3.5-6L312.4,474.7z M304.2,469.9l3.5-6l-0.1,0l-0.1,0L304.2,469.9L304.2,469.9z M283.4,438.6v23.8h14v-23.8H283.4z
	 M288.4,469.1l11.4,3.4l4-13.4l-11.4-3.4L288.4,469.1z M308.8,465.8v-24.7h-14v24.7H308.8z M303.3,434.3l-11.4-2.5l-3,13.7l11.4,2.5
	L303.3,434.3z M296.1,465l-3.9,6.3l11.9,7.4l3.9-6.3L296.1,465z M300.2,468.3l-17.4-5.7l-4.3,13.3l17.4,5.7L300.2,468.3z
	 M287.7,469.3v-32.4h-14v32.4H287.7z M284.7,442.6l10.8-7.7l-8.1-11.4l-10.8,7.7L284.7,442.6z M290.1,436.1l20.1,4.3l2.9-13.7
	l-20.1-4.3L290.1,436.1z M304.6,433.5v29.6h14v-29.6H304.6z M307.9,469l5.6,3.5l7.4-11.9l-5.6-3.5L307.9,469z M311.1,463l-4.8,8.2
	l12.1,7.1l4.8-8.2L311.1,463z M315.9,468.7l-8.2-4.8l-7.1,12.1l8.2,4.8L315.9,468.7z M307.7,463.8l-2.2-1.2l-6.9,12.2l2.2,1.2
	L307.7,463.8z M328.5,411.4h7v-10.9l-9.9,4.6L328.5,411.4z M328.5,463.8h-7v4.9l4.6,1.7L328.5,463.8z M335.3,466.3l6.6,2.4l2.4-6.5
	l-6.5-2.4L335.3,466.3L335.3,466.3z M332.1,475l-2.4,6.6l6.6,2.4l2.4-6.6L332.1,475z M319.1,470.3h-7v4.9l4.6,1.7L319.1,470.3
	L319.1,470.3z M319.1,415.8l-2.9-6.4l-4.1,1.9v4.5H319.1z M321.5,411.4v52.3h14v-52.3H321.5z M326.1,470.3l6.7,2.5l4.9-13.1
	l-6.7-2.5L326.1,470.3z M328.7,463.9l-3.2,8.7l13.2,4.8l3.2-8.7L328.7,463.9z M334.5,468.4l-13-4.7l-4.8,13.2l13,4.7L334.5,468.4z
	 M326.1,470.3v-54.5h-14v54.5L326.1,470.3L326.1,470.3z M322,422.1l9.4-4.3l-5.8-12.7l-9.4,4.3L322,422.1L322,422.1z"/>
<path class="st2" d="M155.4,411.4v52.3l6.7,2.5l-3.2,8.7l-13-4.7v-54.5L155.4,411.4z M165.3,413.9h8.2l-2,12.9h-6.1V413.9z
	 M165.7,430.3l10,6.3v26.5l6,3.5l-4.7,8.2l-10.7-6.1v-26.8l-5.6-3.6L165.7,430.3z M204.5,465.5V442l-10.8-3.3v23.5L204.5,465.5z
	 M193.7,435.9l3.8-6.2l16.4,5.1v31.1l-11.4,9.1l-18.3-5.5v-58.1l9.5-4.4L193.7,435.9L193.7,435.9z M248.7,436L229,462.2l15.7,4.3
	l-4,8.4l-21.2-5.5v-29.1l10.1-10.7L248.7,436L248.7,436z M229,456.9l10.6-13.9l-10.6-3.5V456.9z M265.7,429.8l13.8,5l-5.7,8l-11.4-4
	v24.4l6,3.5l-4.7,8.2l-10.7-6.1v-26.8l-5.6-3.6l5.1-8l8.8,5.7L265.7,429.8L265.7,429.8z M290.4,438.6v23.8l11.4,3.4v-24.7
	L290.4,438.6z M302,468.7l-3.9,6.3l-17.4-5.7v-32.4l10.8-7.7l20.1,4.3v29.6l5.6,3.5l-4.8,8.2l-8.2-4.8L302,468.7z M328.5,411.4v52.3
	l6.7,2.5l-3.2,8.7l-13-4.7v-54.5L328.5,411.4L328.5,411.4z"/>
<path class="st1" d="M204,128h72c2.8,0,5,2.2,5,5l0,0c0,2.8-2.2,5-5,5h-72c-2.8,0-5-2.2-5-5l0,0C199,130.2,201.2,128,204,128z"/>
<path class="st3" d="M178.9,21.5c-1-3.2,1.4-6.5,4.8-6.5h44.1c2.2,0,4.1,1.4,4.8,3.5l28.6,90c1,3.2-1.4,6.5-4.8,6.5h-44.1
	c-2.2,0-4.1-1.4-4.8-3.5L178.9,21.5L178.9,21.5z"/>
<path class="st4" d="M298.1,21.5c1-3.2-1.4-6.5-4.8-6.5h-44.1c-2.2,0-4.1,1.4-4.8,3.5L213.8,115h50.9c2.2,0,4.1-1.4,4.8-3.5
	L298.1,21.5L298.1,21.5z"/>
<path class="st1" d="M238,20h1v1h-1V20z"/>
<path class="st3" d="M314.3,227.6c0,41.2-33.4,74.6-74.6,74.6S165,268.7,165,227.6s33.4-74.6,74.6-74.6S314.3,186.4,314.3,227.6z"/>
<path class="st5" d="M228.1,107.1c-1.7,10.5-5.1,21.3-8.6,29.9c-2.4,5.8,1.8,13,8.1,13h34.7c5,0,8.8-4.6,7.1-9.4
	c-5.6-15.1-16.6-29.2-26.4-39.5C238.1,95.9,229.2,100.1,228.1,107.1L228.1,107.1z"/>
<path class="st1" d="M200.3,199.6c-5.2-6.2-0.8-15.6,7.2-15.6h65.7c8,0,12.4,9.2,7.4,15.4c-1.8,2.2-4.5,3.5-7.4,3.6h-65.7
	C204.7,203,202.1,201.8,200.3,199.6z"/>
<path class="st1" d="M279.7,200.4c5.2,6.2,0.8,15.6-7.2,15.6h-65.7c-8,0-12.4-9.2-7.4-15.4c1.8-2.2,4.5-3.5,7.4-3.6h65.7
	C275.3,197,277.9,198.2,279.7,200.4z"/>
<path class="st1" d="M269.9,213.5c3.9,6.3-0.6,14.5-8.1,14.5h-44.2c-7.4,0-11.9-8-8.2-14.3c1.7-2.9,4.8-4.7,8.2-4.7h44.2
	C265.2,209,268.2,210.7,269.9,213.5z M208.5,311.3c-4.2-6.7,0.6-15.3,8.5-15.3h46.5c7.7,0,12.5,8.4,8.6,15.1c-1.8,3-5.1,4.9-8.6,4.9
	H217C213.6,316,210.4,314.2,208.5,311.3L208.5,311.3z"/>
<path class="st1" d="M261.3,315.2c2.7,6.6-2.1,13.8-9.3,13.8h-24.5c-7,0-11.9-7.1-9.3-13.6c1.5-3.8,5.2-6.4,9.3-6.4h24.5
	C256.1,309,259.8,311.5,261.3,315.2z"/>
<path class="st6" d="M219.9,153c-11.2,12.3-6.5,25.9-1.7,32.9c1,1.4,2.7,2.2,4.4,2.2h32.9c2,0,3.9-1,4.9-2.7
	c14.2-24.5-1.2-54-16.3-72.5c-3.4-4.2-10-1.5-10.6,3.9C232.1,128.9,228.3,143.7,219.9,153L219.9,153z"/>
<path class="st1" d="M215,222h49v81h-49V222z"/>
<path class="st2" d="M240,228.2L240,228.2c1.9,0,3.5,1.6,3.5,3.5V294c0,1.9-1.6,3.5-3.5,3.5l0,0c-1.9,0-3.5-1.6-3.5-3.5v-62.4
	C236.5,229.7,238.1,228.2,240,228.2z"/>
<path class="st2" d="M215.6,306.5L215.6,306.5c0-1.9,1.6-3.5,3.5-3.5h41.9c1.9,0,3.5,1.6,3.5,3.5l0,0c0,1.9-1.6,3.5-3.5,3.5h-41.9
	C217.2,310,215.6,308.4,215.6,306.5z"/>
<path class="st2" d="M226.1,319L226.1,319c0-1.9,1.6-3.5,3.5-3.5h20.9c1.9,0,3.5,1.6,3.5,3.5v0c0,1.9-1.6,3.5-3.5,3.5h-20.9
	C227.6,322.5,226.1,320.9,226.1,319z"/>
<path class="st2" d="M215.6,219.1L215.6,219.1c0-1.9,1.6-3.5,3.5-3.5h41.9c1.9,0,3.5,1.6,3.5,3.5v0c0,1.9-1.6,3.5-3.5,3.5h-41.9
	C217.2,222.6,215.6,221.1,215.6,219.1z"/>
<path class="st2" d="M205.2,206.7L205.2,206.7c0-1.9,1.6-3.5,3.5-3.5h62.8c1.9,0,3.5,1.6,3.5,3.5v0c0,1.9-1.6,3.5-3.5,3.5h-62.8
	C206.7,210.1,205.2,208.6,205.2,206.7z"/>
<path class="st2" d="M205.2,194.2L205.2,194.2c0-1.9,1.6-3.5,3.5-3.5h62.8c1.9,0,3.5,1.6,3.5,3.5v0c0,1.9-1.6,3.5-3.5,3.5h-62.8
	C206.7,197.7,205.2,196.1,205.2,194.2z"/>
<path class="st2" d="M226.1,228.2L226.1,228.2c1.9,0,3.5,1.6,3.5,3.5V294c0,1.9-1.6,3.5-3.5,3.5l0,0c-1.9,0-3.5-1.6-3.5-3.5v-62.4
	C222.6,229.7,224.1,228.2,226.1,228.2z"/>
<path class="st2" d="M253.9,228.2L253.9,228.2c1.9,0,3.5,1.6,3.5,3.5V294c0,1.9-1.6,3.5-3.5,3.5h0c-1.9,0-3.5-1.6-3.5-3.5v-62.4
	C250.5,229.7,252,228.2,253.9,228.2z"/>
<path class="st2" d="M225.6,156.4c-11.7,12.4-5.2,23.9-0.3,28.4c0.2,0.2,0.4,0.2,0.6,0.2h25.8c0.2,0,0.5-0.1,0.7-0.3
	c15.2-14.1,0.7-45.1-10-61.2c-0.5-0.8-1.8-0.4-1.9,0.5C239.6,131.8,235.9,145.4,225.6,156.4z"/>
</svg>
