<svg xmlns="http://www.w3.org/2000/svg" width="15" height="15" fill="none" viewBox="0 0 15 15">
    <path fill="#fff" d="M0 0h15v15H0z"/>
    <path fill="#B84936" d="M9.391 4.502c-.27.443-.437 1.01-.516 1.4a.18.18 0 0 0 .19.218 3.132 3.132 0 0 0 1.487-.529c.15-.102.394.004.394.186v3.519c0 .188-.264.295-.42.19-.473-.319-1.073-.476-1.477-.536-.115-.017-.214.075-.195.19.08.467.382 1.053.636 1.465.085.138-.013.323-.175.323h-3.57c-.172 0-.268-.209-.17-.351.394-.574.52-1.133.538-1.47a.167.167 0 0 0-.185-.174c-.567.05-1.131.314-1.514.55-.143.087-.342-.012-.342-.18v-3.54c0-.181.234-.282.385-.183.477.313 1.054.466 1.438.524a.174.174 0 0 0 .201-.193c-.063-.555-.32-1.09-.55-1.456-.09-.144.01-.347.179-.347h3.474c.18 0 .286.24.192.394z"/>
    <circle cx="7.5" cy="7.5" r="6.5" stroke="#B84936" stroke-width="2"/>
</svg>
