<svg xmlns="http://www.w3.org/2000/svg" width="15" height="15" fill="none" viewBox="0 0 15 15">
    <circle cx="7.5" cy="7.5" r="6.5" stroke="#353535" stroke-width="2"/>
    <path fill="#353535" d="M7.307 3.737c.052-.2.334-.2.386 0l.463 1.762a.2.2 0 0 0 .295.122l1.573-.919c.178-.104.378.096.274.274l-.92 1.573a.2.2 0 0 0 .123.295l1.763.463c.198.052.198.334 0 .386L9.5 8.156a.2.2 0 0 0-.122.295l.919 1.573c.104.178-.096.378-.274.274l-1.573-.92a.2.2 0 0 0-.295.123l-.463 1.763c-.052.198-.334.198-.386 0L6.844 9.5a.2.2 0 0 0-.295-.122l-1.573.919c-.178.104-.378-.096-.274-.274l.92-1.573a.2.2 0 0 0-.123-.295l-1.762-.463c-.2-.052-.2-.334 0-.386l1.762-.463a.2.2 0 0 0 .122-.295l-.919-1.573c-.104-.178.096-.378.274-.274l1.573.92a.2.2 0 0 0 .295-.123l.463-1.762z"/>
</svg>
