<svg xmlns="http://www.w3.org/2000/svg" width="140" height="140" fill="none" viewBox="0 0 140 140">
    <circle cx="70" cy="70" r="62.5" stroke="#44939D" stroke-width="15"/>
    <path fill="#1A3044" d="M68.098 36.854c.599-1.843 3.205-1.843 3.804 0l6.854 21.094a2 2 0 0 0 1.902 1.382h22.18c1.937 0 2.743 2.48 1.176 3.618L86.07 75.985a2 2 0 0 0-.727 2.236l6.854 21.095c.599 1.842-1.51 3.374-3.078 2.236L71.176 88.515a2 2 0 0 0-2.352 0l-17.943 13.037c-1.568 1.138-3.677-.394-3.078-2.236l6.854-21.095a2 2 0 0 0-.727-2.236L35.986 62.948c-1.567-1.139-.761-3.618 1.176-3.618h22.18a2 2 0 0 0 1.902-1.382l6.854-21.094z"/>
</svg>
